<svg xmlns="http://www.w3.org/2000/svg" width="1024" height="1024" viewBox="0 0 256 256"><g fill="none"><g clip-path="url(#skillIconsHtmxDark0)"><path fill="#242938" d="M196 0H60C26.863 0 0 26.863 0 60v136c0 33.137 26.863 60 60 60h136c33.137 0 60-26.863 60-60V60c0-33.137-26.863-60-60-60"/><path fill="#3D72D7" d="M102.25 180.12L137.58 75.6a1.75 1.75 0 0 1 1.84-1.18l14.65 1.5a1.749 1.749 0 0 1 1.49 2.29l-34.5 103.08a1.75 1.75 0 0 1-1.66 1.2l-15.5-.06a1.738 1.738 0 0 1-.796-.196a1.752 1.752 0 0 1-.854-2.114"/><path fill="#F5F5F5" d="M58.74 131.41c-1.173.46-1.167.903.02 1.33c12.113 4.38 23.793 8.49 35.04 12.33a1.358 1.358 0 0 1 .91 1.25a179.54 179.54 0 0 1-.41 15.92a5.502 5.502 0 0 1-.34 1.55c-.24.62-.667.803-1.28.55l-57.17-23.73a.683.683 0 0 1-.41-.66l.74-15.53a1.013 1.013 0 0 1 .61-.88l55.9-23.96a1.061 1.061 0 0 1 .886.017a1.103 1.103 0 0 1 .584.683c.3 1.02.487 2.02.56 3c.367 5 .467 9.983.3 14.95a.738.738 0 0 1-.48.66a3138.544 3138.544 0 0 1-33.74 12.24c-.287.1-.577.157-.87.17c-.427.02-.71.057-.85.11m139.7-.17l-35.69-12.46a.348.348 0 0 1-.24-.33c-.1-4.933-.08-9.957.06-15.07a9.915 9.915 0 0 1 .56-3.13c.127-.333.36-.453.7-.36c1.133.313 2.193.673 3.18 1.08c18.113 7.453 36.21 14.943 54.29 22.47c.387.16.58.45.58.87l.03 15.71a.971.971 0 0 1-.59.89l-56.91 23.5a1.043 1.043 0 0 1-1.276-.399a1.024 1.024 0 0 1-.154-.451c-.593-5.967-.743-11.827-.45-17.58a.888.888 0 0 1 .6-.79c12.327-4.153 24.103-8.38 35.33-12.68c1.153-.44 1.147-.863-.02-1.27"/></g><defs><clipPath id="skillIconsHtmxDark0"><path fill="#fff" d="M0 0h256v256H0z"/></clipPath></defs></g></svg>